<svg width="1339" height="1080" viewBox="0 0 1339 1080" fill="none" xmlns="http://www.w3.org/2000/svg">
<mask id="mask0" mask-type="alpha" maskUnits="userSpaceOnUse" x="0" y="0" width="1339" height="1080">
<rect width="1339" height="1080" fill="#F2EFF7"/>
</mask>
<g mask="url(#mask0)">
<path opacity="0.1" d="M985.437 1243.95L2111.73 1240.69C2208.13 1240.69 2360.97 1201.08 2419.63 1126.67C2545.2 967.383 2630.12 561.945 2208.48 404.495C1651.07 196.365 1944.05 -191 1453.24 -191C954.599 -191 1094.95 105.724 924.386 120.328C851.748 126.537 753.233 126.121 656.453 123.034C502.506 118.108 381.547 247.808 406.141 392.493C413.252 434.258 414.918 472.484 406.905 500.443C372.667 619.91 139.006 563.298 92.073 851.385C58.5294 1057.33 218.131 1243.95 400.002 1243.95C582.983 1243.95 985.437 1243.95 985.437 1243.95Z" fill="#7F75AB"/>
<path d="M1092.14 1267.09L2236.26 1263.9C2334.19 1263.9 2489.45 1224.91 2549.05 1151.72C2676.6 994.995 2762.87 596.114 2334.54 441.196C1768.32 236.396 2065.91 -144.691 1567.33 -144.691C1060.78 -144.691 1203.38 147.281 1030.12 161.608C956.333 167.713 856.257 167.331 757.95 164.279C601.541 159.422 478.709 287.041 503.685 429.402C510.9 470.473 512.6 508.11 504.483 535.583C469.69 653.107 232.318 597.432 184.691 880.871C150.627 1083.52 312.76 1267.13 497.51 1267.13C683.336 1267.09 1092.14 1267.09 1092.14 1267.09Z" fill="#9C85D2"/>
<path opacity="0.86" d="M1167.31 1319.12L2311.43 1315.93C2409.36 1315.93 2564.62 1276.94 2624.22 1203.75C2751.77 1047.03 2838.04 648.146 2409.71 493.228C1843.49 288.428 2141.08 -92.6585 1642.5 -92.6585C1135.95 -92.6585 1278.55 199.313 1105.29 213.64C1031.5 219.745 931.427 219.363 833.12 216.311C676.71 211.454 553.879 339.073 578.855 481.434C586.07 522.505 587.77 560.142 579.652 587.615C544.86 705.139 307.488 649.464 259.861 932.903C225.797 1135.55 387.93 1319.16 572.68 1319.16C758.471 1319.12 1167.31 1319.12 1167.31 1319.12Z" fill="#CCBFE7"/>
<path d="M1294.51 1417.39L2438.64 1414.2C2536.56 1414.2 2691.83 1375.21 2751.42 1302.02C2878.97 1145.3 2965.24 746.418 2536.91 591.5C1970.69 386.7 2268.28 5.61336 1769.71 5.61336C1263.15 5.61336 1405.76 297.585 1232.49 311.912C1158.71 318.017 1058.63 317.635 960.322 314.583C803.913 309.726 681.081 437.345 706.057 579.706C713.272 620.777 714.972 658.414 706.855 685.887C672.062 803.411 434.69 747.736 387.063 1031.17C352.999 1233.82 515.132 1417.43 699.882 1417.43C885.673 1417.39 1294.51 1417.39 1294.51 1417.39Z" fill="#FDFDFE" fill-opacity="0.4"/>
<path d="M185.173 574.948V586.029" stroke="#9C85D2" stroke-width="4" stroke-miterlimit="10" stroke-linecap="round"/>
<path d="M185.173 597.111V608.192" stroke="#9C85D2" stroke-width="4" stroke-miterlimit="10" stroke-linecap="round"/>
<path d="M201.945 591.42H190.863" stroke="#9C85D2" stroke-width="4" stroke-miterlimit="10" stroke-linecap="round"/>
<path d="M179.782 591.42H168.701" stroke="#9C85D2" stroke-width="4" stroke-miterlimit="10" stroke-linecap="round"/>
<path d="M375.331 370.163V381.245" stroke="#D3C0FF" stroke-width="4" stroke-miterlimit="10" stroke-linecap="round"/>
<path d="M375.331 392.326V403.408" stroke="#D3C0FF" stroke-width="4" stroke-miterlimit="10" stroke-linecap="round"/>
<path d="M392.102 386.636H381.021" stroke="#D3C0FF" stroke-width="4" stroke-miterlimit="10" stroke-linecap="round"/>
<path d="M369.939 386.636H358.858" stroke="#D3C0FF" stroke-width="4" stroke-miterlimit="10" stroke-linecap="round"/>
<path d="M73.4727 863.508V874.59" stroke="#D3C0FF" stroke-width="4" stroke-miterlimit="10" stroke-linecap="round"/>
<path d="M73.4727 885.671V896.752" stroke="#D3C0FF" stroke-width="4" stroke-miterlimit="10" stroke-linecap="round"/>
<path d="M90.244 879.981H79.1626" stroke="#D3C0FF" stroke-width="4" stroke-miterlimit="10" stroke-linecap="round"/>
<path d="M68.0814 879.981H57" stroke="#D3C0FF" stroke-width="4" stroke-miterlimit="10" stroke-linecap="round"/>
<path d="M831.442 58.9969V70.0783" stroke="#9C85D2" stroke-width="4" stroke-miterlimit="10" stroke-linecap="round"/>
<path d="M831.442 81.1597V92.2411" stroke="#9C85D2" stroke-width="4" stroke-miterlimit="10" stroke-linecap="round"/>
<path d="M848.213 75.4693H837.132" stroke="#9C85D2" stroke-width="4" stroke-miterlimit="10" stroke-linecap="round"/>
<path d="M826.051 75.4693H814.969" stroke="#9C85D2" stroke-width="4" stroke-miterlimit="10" stroke-linecap="round"/>
<path d="M1044.03 116.574C1055.84 104.761 1055.84 85.6093 1044.03 73.7967C1032.21 61.9842 1013.06 61.9842 1001.25 73.7967C989.437 85.6093 989.437 104.761 1001.25 116.574C1013.06 128.386 1032.21 128.386 1044.03 116.574Z" fill="#00E0FF"/>
<path d="M1022.65 125.421C1039.35 125.421 1052.89 111.879 1052.89 95.1731C1052.89 78.4675 1039.35 64.9249 1022.65 64.9249C1005.94 64.9249 992.398 78.4675 992.398 95.1731C992.398 111.879 1005.94 125.421 1022.65 125.421Z" stroke="#B7BDBD" stroke-miterlimit="10"/>
<path d="M501.697 745.435C501.697 756.605 492.644 765.659 481.474 765.659C470.304 765.659 461.25 756.605 461.25 745.435C461.25 734.266 470.304 725.212 481.474 725.212C492.644 725.177 501.697 734.266 501.697 745.435Z" fill="#A875D5" fill-opacity="0.5"/>
<path d="M392.424 501.208C403.871 504.226 410.705 515.986 407.652 527.398C404.634 538.845 392.875 545.679 381.463 542.626C370.016 539.608 363.182 527.849 366.234 516.437C369.252 504.989 381.012 498.156 392.424 501.208Z" fill="#3A2BEE" fill-opacity="0.31"/>
<mask id="mask1" mask-type="alpha" maskUnits="userSpaceOnUse" x="365" y="500" width="44" height="44">
<path d="M392.424 501.208C403.871 504.226 410.705 515.986 407.652 527.398C404.634 538.845 392.875 545.679 381.463 542.626C370.016 539.608 363.182 527.849 366.234 516.437C369.252 504.989 381.012 498.156 392.424 501.208Z" fill="#6B46FF"/>
</mask>
<g mask="url(#mask1)">
<path opacity="0.4" d="M381.618 494.705C382.034 493.179 381.097 491.584 379.571 491.202C378.045 490.786 376.449 491.722 376.068 493.249L376.727 490.786C377.143 489.259 376.206 487.664 374.68 487.282C373.154 486.866 371.558 487.802 371.176 489.329L369.06 497.376C368.644 498.903 369.581 500.498 371.107 500.88C372.633 501.296 374.229 500.36 374.611 498.833L373.952 501.296C373.535 502.823 374.472 504.418 375.998 504.8C377.524 505.216 379.12 504.279 379.502 502.753L381.618 494.705Z" fill="#02687F"/>
<path opacity="0.4" d="M361.266 521.369L357.693 534.863C356.999 537.43 358.56 540.066 361.127 540.76C363.694 541.454 366.33 539.893 367.024 537.326L365.914 541.488C365.22 544.055 366.781 546.692 369.348 547.385C371.915 548.079 374.551 546.518 375.245 543.951L377.153 536.771C376.667 538.54 377.743 540.378 379.512 540.864C381.281 541.35 383.119 540.274 383.605 538.505L386.068 529.174C386.553 527.405 385.478 525.566 383.709 525.081C381.94 524.595 380.101 525.671 379.616 527.44L378.818 530.458C379.512 527.891 377.951 525.254 375.384 524.56C372.817 523.867 370.181 525.428 369.487 527.995L370.597 523.832C371.291 521.265 369.73 518.629 367.163 517.935C364.596 517.241 361.959 518.768 361.266 521.369Z" fill="#02687F"/>
<path opacity="0.4" d="M390.521 504.082L386.948 517.576C386.254 520.143 387.815 522.779 390.382 523.473C392.949 524.167 395.586 522.606 396.279 520.039L395.169 524.201C394.476 526.768 396.036 529.405 398.603 530.098C401.17 530.792 403.807 529.231 404.5 526.664L406.408 519.484C405.923 521.253 406.998 523.091 408.767 523.577C410.536 524.063 412.375 522.987 412.86 521.218L415.323 511.887C415.809 510.118 414.734 508.279 412.964 507.794C411.195 507.308 409.357 508.384 408.871 510.153L408.073 513.171C408.767 510.604 407.206 507.967 404.639 507.274C402.072 506.58 399.436 508.141 398.742 510.708L399.852 506.545C400.546 503.978 398.985 501.342 396.418 500.648C393.851 499.954 391.215 501.481 390.521 504.082Z" fill="#ECE2F2"/>
</g>
<path d="M392.166 502.174L392.169 502.175C403.082 505.052 409.595 516.263 406.686 527.14L406.685 527.143C403.808 538.056 392.597 544.569 381.721 541.66L381.718 541.659C370.804 538.782 364.291 527.571 367.201 516.695L367.201 516.692C370.079 505.778 381.29 499.265 392.166 502.174Z" stroke="#A9A3F4" stroke-width="2"/>
<path d="M428.474 244.552C452.888 209.26 444.069 160.859 408.777 136.446C373.484 112.032 325.083 120.851 300.67 156.143C276.256 191.435 285.075 239.836 320.367 264.25C355.659 288.663 404.06 279.845 428.474 244.552Z" fill="#9DF1BF"/>
<mask id="mask2" mask-type="alpha" maskUnits="userSpaceOnUse" x="256" y="92" width="217" height="217">
<path d="M428.474 244.699C452.888 209.406 444.069 161.005 408.777 136.592C373.484 112.178 325.083 120.997 300.67 156.289C276.256 191.581 285.075 239.982 320.367 264.396C355.659 288.81 404.06 279.991 428.474 244.699Z" fill="#F2E6FF"/>
</mask>
<g mask="url(#mask2)">
<path d="M370.876 176.901L348.317 182.715L347.475 182.921L347.47 182.844C344.567 183.158 341.831 181.333 341.083 178.44C340.334 175.548 341.883 172.611 344.567 171.502L344.528 171.364C351.432 169.101 355.235 161.257 352.218 154.227C349.722 148.378 343.083 145.482 336.916 147.08L288.416 159.58C282.142 161.2 277.741 167.105 278.514 173.508C278.679 174.975 279.12 176.363 279.724 177.616L279.479 177.678L285.652 201.551C283.239 204.587 282.224 208.657 283.257 212.667C285.017 219.461 291.993 223.565 298.787 221.805L276.229 227.62C269.954 229.24 265.523 235.162 266.296 241.566C267.26 249.34 274.816 254.311 282.131 252.411L307.642 245.813C304.014 246.746 301.828 250.451 302.761 254.079C303.553 257.186 306.411 259.221 309.452 259.147C309.964 259.132 310.506 259.1 311.026 258.96L314.378 258.106L317.593 257.291L317.623 257.274L331.29 253.749C334.397 252.957 337.803 254.555 338.781 257.636C339.832 260.914 337.877 264.326 334.602 265.175L337.082 264.545C332.277 265.797 329.49 270.89 331.224 275.697C332.748 279.864 337.4 282.025 341.685 280.913L341.823 280.873C344.93 280.081 348.336 281.679 349.314 284.76C350.365 288.038 348.41 291.45 345.135 292.299L342.213 293.065C339.183 293.853 340.008 298.544 343.087 298.048C343.379 297.999 343.641 297.968 343.946 297.872L370.27 291.086C371.585 290.727 372.731 290.146 373.691 289.311C375.478 287.758 373.985 284.895 371.703 285.452C368.781 286.218 365.573 284.825 364.455 281.986C363.25 278.997 364.625 275.759 367.295 274.418C366.878 274.459 366.431 274.516 366.001 274.604L367.286 274.263C371.571 273.151 374.603 269.037 373.904 264.635C373.12 259.6 368.192 256.476 363.388 257.728L357.633 259.208L354.358 260.058C355.016 259.878 355.656 259.669 356.261 259.399C353.327 259.451 350.603 257.299 350.257 254.134C349.891 251.141 351.996 248.404 354.918 247.638L362.908 245.589L363.673 245.387C363.655 245.357 363.638 245.327 363.668 245.31C366.382 244.183 367.931 241.246 367.182 238.354L366.758 236.717C366.009 233.824 363.243 232.017 360.37 232.313L360.365 232.236L360.718 232.153C366.993 230.533 371.424 224.61 370.651 218.207C369.687 210.432 362.131 205.462 354.816 207.361L377.865 201.425C385.179 199.525 389.407 191.516 386.471 184.279C383.876 178.327 377.12 175.298 370.876 176.901Z" fill="#9E8AD6"/>
<path d="M365.556 172.912L342.998 178.726L342.155 178.932L342.151 178.854C339.248 179.169 336.512 177.344 335.763 174.451C335.015 171.559 336.563 168.622 339.248 167.513L339.208 167.375C346.112 165.111 349.915 157.268 346.898 150.238C344.402 144.389 337.764 141.493 331.596 143.091L283.097 155.591C276.823 157.211 272.422 163.116 273.194 169.519C273.36 170.986 273.801 172.374 274.404 173.627L274.16 173.689L280.332 197.562C277.919 200.598 276.905 204.668 277.938 208.678C279.698 215.472 286.674 219.576 293.468 217.816L270.91 223.63C264.635 225.25 260.204 231.173 260.977 237.576C261.941 245.351 269.497 250.322 276.811 248.422L302.322 241.824C298.695 242.757 296.509 246.462 297.441 250.089C298.234 253.197 301.091 255.232 304.133 255.158C304.645 255.143 305.187 255.111 305.707 254.971L309.059 254.117L312.274 253.302L312.304 253.285L325.97 249.76C329.078 248.968 332.484 250.566 333.461 253.647C334.513 256.925 332.557 260.337 329.283 261.186L331.762 260.555C326.958 261.807 324.171 266.901 325.904 271.708C327.429 275.875 332.081 278.036 336.366 276.924L336.503 276.884C339.611 276.092 343.017 277.69 343.994 280.771C345.046 284.049 343.09 287.461 339.816 288.31L336.893 289.076C333.863 289.864 334.689 294.555 337.767 294.059C338.06 294.01 338.322 293.979 338.627 293.883L364.95 287.097C366.265 286.738 367.411 286.156 368.372 285.322C370.159 283.769 368.666 280.906 366.384 281.463C363.461 282.229 360.254 280.836 359.136 277.997C357.931 275.008 359.306 271.77 361.976 270.429C361.559 270.469 361.112 270.527 360.682 270.615L361.967 270.274C366.252 269.162 369.284 265.048 368.584 260.645C367.8 255.611 362.873 252.487 358.068 253.739L352.314 255.219L349.039 256.068C349.696 255.889 350.336 255.68 350.942 255.41C348.008 255.462 345.283 253.31 344.938 250.145C344.572 247.152 346.676 244.415 349.599 243.649L357.588 241.599L358.353 241.398C358.336 241.368 358.318 241.338 358.349 241.321C361.063 240.194 362.612 237.257 361.863 234.365L361.438 232.728C360.69 229.835 357.924 228.027 355.051 228.324L355.046 228.247L355.399 228.164C361.673 226.544 366.104 220.621 365.331 214.218C364.367 206.443 356.811 201.472 349.497 203.372L372.545 197.435C379.86 195.535 384.088 187.527 381.152 180.29C378.556 174.338 371.801 171.309 365.556 172.912Z" fill="#CBFBFE"/>
<path d="M460.192 195.948C460.175 195.918 460.145 195.935 460.158 195.888L451.353 161.838L450.941 161.956C451.866 160.02 452.088 157.768 451.472 155.521C450.098 150.506 444.682 147.785 439.662 149.081L407.662 157.342C402.642 158.638 399.244 163.644 400.48 168.699C401.019 170.951 403.637 174.166 403.637 174.166L403.681 174.381C411.422 173.637 418.823 178.616 420.828 186.391C422.834 194.165 418.803 202.1 411.653 205.187C410.88 205.513 410.089 205.809 409.247 206.015L397.493 209.036C389.581 211.081 384.173 218.849 385.727 226.884C387.431 235.593 396.069 240.981 404.578 238.791L457.835 225.027C465.777 222.965 471.185 215.196 469.6 207.179C468.536 201.866 464.856 197.782 460.192 195.948Z" fill="#A07FD5"/>
<path d="M458.863 190.629C458.845 190.599 458.815 190.616 458.828 190.569L450.024 156.519L449.611 156.637C450.536 154.701 450.759 152.449 450.142 150.202C448.769 145.187 443.352 142.466 438.333 143.762L406.332 152.023C401.313 153.319 397.915 158.325 399.15 163.38C399.69 165.632 402.307 168.847 402.307 168.847L402.351 169.062C410.092 168.318 417.493 173.297 419.499 181.072C421.504 188.846 417.473 196.781 410.323 199.868C409.55 200.194 408.76 200.49 407.917 200.696L396.163 203.717C388.251 205.762 382.843 213.53 384.398 221.565C386.102 230.274 394.739 235.662 403.249 233.472L456.505 219.708C464.447 217.646 469.856 209.877 468.271 201.86C467.206 196.547 463.526 192.463 458.863 190.629Z" fill="#8EE0F2"/>
</g>
<path d="M407.354 138.648C441.511 162.276 450.046 209.12 426.418 243.276C402.79 277.433 355.946 285.968 321.79 262.34C287.633 238.712 279.098 191.868 302.726 157.712C326.354 123.555 373.198 115.02 407.354 138.648Z" stroke="#9DF1BF" stroke-width="5"/>
<path d="M316.795 993.321C348.833 968.078 354.342 921.642 329.098 889.604C303.855 857.566 257.42 852.057 225.381 877.3C193.343 902.543 187.835 948.979 213.078 981.017C238.321 1013.06 284.757 1018.56 316.795 993.321Z" fill="#EE7FA7"/>
<mask id="mask3" mask-type="alpha" maskUnits="userSpaceOnUse" x="167" y="831" width="208" height="209">
<path d="M316.795 993.321C348.833 968.078 354.342 921.642 329.098 889.604C303.855 857.566 257.42 852.057 225.381 877.3C193.343 902.543 187.835 948.979 213.078 981.017C238.321 1013.06 284.757 1018.56 316.795 993.321Z" fill="#9C85D2"/>
</mask>
<g mask="url(#mask3)">
<path opacity="0.4" d="M187.465 994.354L235.196 999.869C244.319 1000.91 252.575 994.388 253.616 985.231C254.656 976.107 248.135 967.852 238.977 966.811L253.65 968.511C262.773 969.551 271.029 963.03 272.07 953.872C273.111 944.749 266.589 936.493 257.432 935.453L232.005 932.539C238.318 933.267 244.042 928.723 244.77 922.41C245.499 916.097 240.955 910.373 234.641 909.645L201.583 905.829C195.27 905.1 189.546 909.645 188.818 915.958C188.089 922.271 192.634 927.995 198.947 928.723L209.666 929.972C200.543 928.931 192.287 935.453 191.246 944.61C190.205 953.734 196.727 961.989 205.885 963.03L191.211 961.33C182.088 960.29 173.832 966.811 172.792 975.969C171.786 985.022 178.342 993.278 187.465 994.354Z" fill="#8882D0"/>
<path d="M284.053 898.959L331.952 895.171C341.105 894.433 347.949 886.443 347.204 877.256C346.467 868.103 338.477 861.26 329.29 862.004L344.016 860.843C353.168 860.106 360.012 852.115 359.268 842.929C358.531 833.776 350.54 826.932 341.353 827.676L315.842 829.718C322.177 829.216 326.918 823.654 326.415 817.319C325.913 810.983 320.351 806.243 314.016 806.745L280.842 809.373C274.507 809.875 269.767 815.438 270.269 821.773C270.771 828.108 276.333 832.849 282.668 832.346L293.427 831.506C284.274 832.243 277.43 840.234 278.175 849.42C278.912 858.573 286.902 865.417 296.089 864.672L281.363 865.833C272.211 866.57 265.367 874.561 266.111 883.748C266.869 892.825 274.894 899.663 284.053 898.959Z" fill="#FDEAA8" fill-opacity="0.82"/>
<path d="M306.659 1035.93L354.559 1032.14C363.711 1031.4 370.555 1023.41 369.811 1014.22C369.074 1005.07 361.083 998.226 351.896 998.97L366.622 997.809C375.775 997.072 382.619 989.082 381.874 979.895C381.137 970.742 373.147 963.898 363.96 964.643L338.448 966.685C344.784 966.183 349.524 960.62 349.022 954.285C348.52 947.95 342.958 943.209 336.622 943.712L303.449 946.34C297.113 946.842 292.373 952.404 292.875 958.739C293.377 965.075 298.94 969.815 305.275 969.313L316.033 968.472C306.881 969.209 300.037 977.2 300.781 986.386C301.518 995.539 309.509 1002.38 318.695 1001.64L303.97 1002.8C294.817 1003.54 287.973 1011.53 288.717 1020.71C289.476 1029.79 297.5 1036.63 306.659 1035.93Z" fill="#FDEAA8" fill-opacity="0.82"/>
<path d="M179.487 992.003L227.218 997.518C236.341 998.559 244.597 992.037 245.637 982.88C246.678 973.757 240.156 965.501 230.999 964.46L245.672 966.16C254.795 967.201 263.051 960.679 264.091 951.521C265.132 942.398 258.611 934.143 249.453 933.102L224.026 930.188C230.34 930.916 236.063 926.372 236.792 920.059C237.52 913.746 232.976 908.022 226.663 907.294L193.605 903.478C187.291 902.75 181.568 907.294 180.839 913.607C180.111 919.92 184.655 925.644 190.968 926.372L201.687 927.621C192.564 926.58 184.308 933.102 183.268 942.26C182.227 951.383 188.748 959.638 197.906 960.679L183.233 958.979C174.11 957.939 165.854 964.46 164.813 973.618C163.807 982.672 170.363 990.927 179.487 992.003Z" fill="#FDEAA8" fill-opacity="0.81"/>
</g>
<path d="M327.92 890.532C352.651 921.92 347.254 967.412 315.867 992.143C284.479 1016.87 238.986 1011.48 214.256 980.089C189.526 948.702 194.922 903.209 226.31 878.479C257.697 853.748 303.19 859.145 327.92 890.532Z" stroke="#EE7FA7" stroke-width="3"/>
<path d="M1154.02 490.402C1226.72 475.406 1273.51 404.308 1258.51 331.601C1243.52 258.894 1172.42 212.109 1099.71 227.105C1027 242.101 980.219 313.198 995.215 385.906C1010.21 458.613 1081.31 505.397 1154.02 490.402Z" fill="#F77D85"/>
<mask id="mask4" mask-type="alpha" maskUnits="userSpaceOnUse" x="967" y="199" width="319" height="319">
<path opacity="0.25" d="M1153.85 490.402C1226.55 475.406 1273.34 404.308 1258.34 331.601C1243.35 258.894 1172.25 212.109 1099.54 227.105C1026.83 242.101 980.05 313.198 995.045 385.906C1010.04 458.613 1081.14 505.397 1153.85 490.402Z" fill="#7E00FF"/>
</mask>
<g mask="url(#mask4)">
<path d="M1179.39 370.479L1115.64 354.465L1113.32 353.897L1113.38 353.661C1105.81 350.556 1101.39 342.325 1103.47 334.146C1105.52 325.952 1113.29 320.768 1121.44 321.623L1121.52 321.278C1141.71 324.924 1161.71 310.716 1163.72 289.167C1165.38 271.332 1152.86 255.177 1135.48 250.833L998.494 216.448C980.817 212.01 961.878 220.698 955.151 237.634C953.589 241.532 952.791 245.501 952.627 249.408L951.904 249.242L934.972 316.712C924.916 320.968 916.882 329.675 914.056 341.013C909.227 360.186 920.991 379.796 940.164 384.625L876.42 368.611C858.743 364.174 839.709 372.819 833.014 389.769C824.865 410.286 836.912 432.787 857.625 437.991L929.672 456.064C919.401 453.481 909.008 459.71 906.425 469.981C904.234 478.756 908.492 487.6 916.176 491.585C917.468 492.267 918.847 492.835 920.342 493.227L929.763 495.588L938.806 497.859L938.915 497.869L977.478 507.549C986.285 509.754 992.519 518.33 990.786 527.269C988.926 536.758 979.51 542.659 970.231 540.323L977.197 542.059C963.609 538.662 949.838 547.575 947.652 561.771C945.778 574.134 954.397 585.729 966.507 588.78L966.917 588.885C975.724 591.089 981.957 599.665 980.238 608.573C978.378 618.062 968.962 623.963 959.683 621.627L951.394 619.536C942.791 617.383 938.528 630.097 946.876 633.086C947.635 633.344 948.393 633.601 949.179 633.795L1023.54 652.468C1027.22 653.404 1030.93 653.407 1034.45 652.643C1040.95 651.219 1041.18 642.074 1034.73 640.452C1026.44 638.361 1020.45 630.612 1021.45 622.144C1022.51 613.099 1030.28 606.967 1038.75 607.279C1037.63 606.79 1036.48 606.319 1035.25 606.007L1038.9 606.93C1051.04 609.995 1064.09 603.835 1068.3 592.04C1073.11 578.507 1065.14 564.13 1051.57 560.701L1035.29 556.613L1026.01 554.276C1027.89 554.758 1029.78 555.022 1031.65 555.162C1024.25 551.304 1020.48 542.373 1023.86 534.005C1027.03 526.113 1035.92 522.179 1044.14 524.241L1066.7 529.913L1068.92 530.472C1068.94 530.408 1068.94 530.331 1068.98 530.235C1077.18 531.15 1085 525.948 1087.06 517.723L1088.23 513.083C1090.28 504.89 1085.9 496.673 1078.32 493.568L1078.39 493.332L1079.41 493.592C1097.09 498.03 1116.12 489.384 1122.81 472.434C1130.96 451.917 1118.92 429.417 1098.2 424.213L1163.25 440.535C1183.96 445.739 1205.18 431.611 1207.71 409.648C1209.77 391.529 1197.1 374.931 1179.39 370.479Z" fill="#F2E6FF"/>
<path d="M1024.96 283.54L1092.79 306.84C1105.76 311.29 1119.88 304.383 1124.33 291.414C1128.78 278.445 1121.88 264.323 1108.91 259.872L1129.77 267.055C1142.74 271.506 1156.86 264.599 1161.31 251.63C1165.76 238.661 1158.85 224.538 1145.88 220.088L1109.77 207.676C1118.76 210.754 1128.53 205.969 1131.6 197.013C1134.68 188.023 1129.9 178.246 1120.94 175.174L1073.98 159.024C1064.99 155.946 1055.21 160.73 1052.14 169.686C1049.06 178.676 1053.85 188.454 1062.8 191.525L1078.06 196.754C1065.09 192.303 1050.97 199.21 1046.52 212.179C1042.07 225.148 1048.98 239.271 1061.95 243.721L1041.09 236.538C1028.12 232.087 1014 238.994 1009.55 251.963C1005.13 264.939 1012 279.089 1024.96 283.54Z" fill="#7D5F5F"/>
<path d="M1249.86 421.993C1249.83 421.953 1249.84 421.919 1249.85 421.851L1272.67 357.68L1271.88 357.383C1275.44 355.255 1278.29 351.891 1279.73 347.648C1282.94 338.133 1277.25 327.86 1267.8 324.485L1207.5 303.062C1198.05 299.686 1187.14 304.085 1183.64 313.472C1182.07 317.688 1182.8 325.679 1182.8 325.679L1182.65 326.074C1195.9 333.307 1202.34 349.279 1197.13 363.951C1191.91 378.622 1176.85 386.941 1162.01 384.203C1160.41 383.889 1158.79 383.5 1157.2 382.941L1135.03 375.052C1120.09 369.75 1102.99 376.361 1096.8 390.948C1090.05 406.802 1098.15 424.795 1114.11 430.474L1214.49 466.166C1229.43 471.468 1246.56 464.864 1252.76 450.243C1256.82 440.541 1255.32 429.995 1249.86 421.993Z" fill="#7D5F5F"/>
<path d="M1059.14 338.542L990.397 318.106C977.253 314.203 963.433 321.696 959.53 334.84C955.627 347.985 963.12 361.805 976.264 365.708L955.122 359.405C941.978 355.502 928.158 362.995 924.255 376.14C920.351 389.284 927.845 403.104 940.989 407.007L977.596 417.894C968.485 415.196 958.916 420.386 956.223 429.463C953.524 438.574 958.715 448.142 967.791 450.836L1015.39 465.003C1024.5 467.702 1034.07 462.512 1036.76 453.435C1039.46 444.323 1034.27 434.755 1025.19 432.062L1009.73 427.478C1022.87 431.381 1036.69 423.888 1040.6 410.744C1044.5 397.599 1037.01 383.779 1023.86 379.876L1045 386.179C1058.15 390.082 1071.97 382.589 1075.87 369.444C1079.74 356.295 1072.29 342.445 1059.14 338.542Z" fill="#070053" fill-opacity="0.38"/>
</g>
<path d="M1255.08 332.308C1269.69 403.122 1224.12 472.368 1153.31 486.974C1082.49 501.579 1013.25 456.013 998.643 385.199C984.037 314.384 1029.6 245.138 1100.42 230.533C1171.23 215.927 1240.48 261.494 1255.08 332.308Z" stroke="#F67D85" stroke-width="7"/>
<path d="M1277.27 369.939C1357.12 399.32 1408.81 425.197 1405.48 436.367C1400.52 453.225 1272.35 430.192 1119.23 384.959C966.117 339.725 846.061 289.392 851.021 272.568C854.351 261.26 913.391 267.955 998.239 287.276" stroke="#8A4E52" stroke-width="5" stroke-miterlimit="10" stroke-linecap="round"/>
<path d="M1069.26 1170.99C1199.3 1040.94 1199.3 830.094 1069.26 700.047C939.211 570.001 728.364 570.001 598.318 700.047C468.271 830.094 468.271 1040.94 598.318 1170.99C728.364 1301.03 939.211 1301.03 1069.26 1170.99Z" fill="#4EBC87"/>
<mask id="mask5" mask-type="alpha" maskUnits="userSpaceOnUse" x="362" y="464" width="943" height="943">
<path d="M1069.26 1170.99C1199.3 1040.94 1199.3 830.094 1069.26 700.047C939.211 570.001 728.364 570.001 598.318 700.047C468.271 830.094 468.271 1040.94 598.318 1170.99C728.364 1301.03 939.211 1301.03 1069.26 1170.99Z" fill="#D9B6FD"/>
</mask>
<g mask="url(#mask5)">
<path d="M837.707 813.496L757.458 827.114L754.537 827.63L754.494 827.329C744.355 827.587 735.247 820.455 733.529 810.145C731.768 799.834 737.997 790.082 747.663 786.989L747.577 786.56C772.279 780.631 787.874 754.554 779.41 729.122C772.408 708.072 750.155 696 728.288 699.737L555.846 729.036C533.593 732.817 516.452 752.106 517.268 774.66C517.44 779.858 518.514 784.755 520.275 789.266L519.373 789.438L533.808 874.37C524.528 884.208 519.76 898.084 522.208 912.347C526.29 936.49 549.402 952.858 573.546 948.777L493.296 962.395C471.043 966.176 453.773 985.465 454.632 1008.02C455.62 1035.34 480.494 1054.85 506.571 1050.42L597.26 1035C584.329 1037.19 575.651 1049.43 577.842 1062.36C579.732 1073.4 588.968 1081.31 599.665 1082C601.47 1082.13 603.317 1082.08 605.207 1081.78L617.064 1079.76L628.449 1077.83L628.578 1077.79L677.122 1069.54C688.206 1067.65 699.548 1074.26 702.039 1085.26C704.66 1096.95 696.927 1108.33 685.242 1110.31L694.006 1108.8C676.908 1111.72 665.738 1128.69 670.335 1145.88C674.373 1160.83 689.925 1169.68 705.175 1167.1L705.691 1167.01C716.775 1165.12 728.116 1171.74 730.608 1182.69C733.228 1194.38 725.496 1205.76 713.81 1207.74L703.371 1209.5C692.545 1211.35 694.049 1227.89 705.004 1227.12C705.992 1227.03 706.98 1226.94 707.968 1226.77L801.578 1210.88C806.218 1210.1 810.428 1208.26 814.036 1205.64C820.695 1200.78 816.399 1190.3 808.28 1191.67C797.84 1193.43 787.186 1187.64 784.093 1177.54C780.785 1166.76 786.542 1155.93 796.294 1152.06C794.79 1152.06 793.244 1152.11 791.697 1152.36L796.294 1151.59C811.588 1149.01 823.316 1135.52 822.199 1120.06C820.91 1102.32 804.714 1089.99 787.616 1092.87L767.124 1096.34L755.439 1098.32C757.802 1097.93 760.078 1097.29 762.269 1096.52C751.959 1095.83 743.238 1087.58 742.894 1076.41C742.551 1065.89 750.67 1056.99 761.024 1055.23L789.42 1050.42L792.213 1049.95C792.213 1049.86 792.17 1049.78 792.17 1049.65C801.922 1046.6 808.194 1036.8 806.432 1026.45L805.444 1020.61C803.683 1010.3 794.618 1003.16 784.48 1003.42L784.437 1003.12L785.726 1002.91C807.979 999.126 825.249 979.837 824.39 957.283C823.402 929.96 798.528 910.457 772.451 914.882L854.333 900.962C880.41 896.537 897.422 869.945 889.345 843.783C882.644 822.217 860.004 809.715 837.707 813.496Z" fill="#673D94" fill-opacity="0.26"/>
<path d="M962.678 638.777C960.745 627.478 950.048 619.874 938.707 621.765L880.195 631.688C868.897 633.622 861.293 644.319 863.183 655.66C865.116 666.959 875.813 674.563 887.155 672.672L945.666 662.749C957.008 660.815 964.612 650.118 962.678 638.777Z" fill="#673D94" fill-opacity="0.26"/>
<path d="M1058.52 866.294C1073.04 863.802 1082.84 850.055 1080.39 835.491C1077.9 820.971 1064.15 811.176 1049.59 813.625L1073 809.629C1087.52 807.138 1097.31 793.39 1094.87 778.827C1092.37 764.306 1078.63 754.511 1064.06 756.96L988.024 769.891C973.504 772.383 963.709 786.13 966.157 800.694C968.649 815.214 982.396 825.009 996.96 822.56L973.547 826.556C959.026 829.047 949.231 842.794 951.68 857.358C954.172 871.878 967.919 881.673 982.482 879.225L1058.52 866.294Z" fill="#673D94" fill-opacity="0.26"/>
<path d="M1118.84 1047.37L991.332 1069.02C966.974 1073.15 950.563 1096.3 954.687 1120.66C958.812 1145.02 981.967 1161.43 1006.33 1157.31L967.103 1163.96C942.744 1168.09 926.334 1191.24 930.458 1215.6C934.582 1239.96 957.738 1256.37 982.096 1252.25L1050.02 1240.69C1033.13 1243.57 1021.79 1259.55 1024.67 1276.43C1027.55 1293.32 1043.53 1304.66 1060.41 1301.78L1148.7 1286.79C1165.58 1283.91 1176.92 1267.93 1174.04 1251.04C1171.16 1234.16 1155.18 1222.82 1138.3 1225.7L1109.64 1230.55C1134 1226.43 1150.41 1203.27 1146.29 1178.91C1142.17 1154.56 1119.01 1138.15 1094.65 1142.27L1133.87 1135.61C1158.23 1131.49 1174.64 1108.33 1170.52 1083.97C1166.35 1059.61 1143.24 1043.2 1118.84 1047.37Z" fill="#673D94" fill-opacity="0.26"/>
<path d="M1110.72 712.969L1192.6 699.05C1220.05 694.367 1238.52 668.334 1233.89 640.882C1229.2 613.431 1203.17 594.958 1175.72 599.597L1093.84 613.517C1066.38 618.199 1047.91 644.233 1052.55 671.684C1057.19 699.136 1083.27 717.609 1110.72 712.969Z" fill="#673D94" fill-opacity="0.26"/>
<path d="M1344.29 900.361C1344.21 900.318 1344.16 900.275 1344.16 900.189L1323.59 779.128L1322.08 779.386C1325.82 772.899 1327.37 765.123 1325.86 757.175C1322.56 739.39 1304.56 728.22 1286.68 731.227L1172.88 750.559C1155.05 753.609 1141.74 770.063 1144.49 787.978C1145.73 795.968 1153.89 807.954 1153.89 807.954L1154.02 808.727C1181.26 808.427 1205.45 827.887 1210.13 855.597C1214.85 883.306 1198.44 909.641 1172.62 918.361C1169.83 919.307 1166.95 920.123 1163.99 920.595L1122.15 927.684C1093.96 932.452 1072.87 957.928 1075.96 986.324C1079.32 1017.21 1107.84 1038.43 1138 1033.32L1327.37 1001.15C1355.59 996.334 1376.68 970.859 1373.59 942.419C1371.62 923.431 1359.97 908.137 1344.29 900.361Z" fill="#673D94" fill-opacity="0.26"/>
<path d="M805.793 813.496L725.544 827.114L722.623 827.63L722.58 827.329C712.441 827.587 703.333 820.455 701.615 810.145C699.854 799.834 706.083 790.082 715.749 786.989L715.663 786.56C740.365 780.631 755.959 754.554 747.496 729.122C740.494 708.072 718.241 696 696.374 699.737L523.932 729.036C501.679 732.817 484.538 752.106 485.354 774.66C485.526 779.858 486.6 784.755 488.361 789.266L487.459 789.438L501.894 874.37C492.614 884.208 487.846 898.084 490.294 912.347C494.376 936.49 517.488 952.858 541.632 948.777L461.382 962.395C439.129 966.176 421.859 985.465 422.718 1008.02C423.706 1035.34 448.58 1054.85 474.657 1050.42L565.346 1035C552.415 1037.19 543.737 1049.43 545.928 1062.36C547.818 1073.4 557.054 1081.31 567.751 1082C569.556 1082.13 571.403 1082.08 573.293 1081.78L585.15 1079.76L596.535 1077.83L596.664 1077.79L645.208 1069.54C656.292 1067.65 667.634 1074.26 670.125 1085.26C672.746 1096.95 665.013 1108.33 653.328 1110.31L662.092 1108.8C644.994 1111.72 633.824 1128.69 638.421 1145.88C642.459 1160.83 658.011 1169.68 673.261 1167.1L673.777 1167.01C684.861 1165.12 696.202 1171.74 698.694 1182.69C701.314 1194.38 693.581 1205.76 681.896 1207.74L671.457 1209.5C660.631 1211.35 662.135 1227.89 673.09 1227.12C674.078 1227.03 675.066 1226.94 676.054 1226.77L769.664 1210.88C774.303 1210.1 778.514 1208.26 782.122 1205.64C788.781 1200.78 784.485 1190.3 776.366 1191.67C765.926 1193.43 755.272 1187.64 752.179 1177.54C748.871 1166.76 754.628 1155.93 764.38 1152.06C762.876 1152.06 761.33 1152.11 759.783 1152.36L764.38 1151.59C779.674 1149.01 791.402 1135.52 790.285 1120.06C788.996 1102.32 772.8 1089.99 755.702 1092.87L735.21 1096.34L723.525 1098.32C725.887 1097.93 728.164 1097.29 730.355 1096.52C720.045 1095.83 711.324 1087.58 710.98 1076.41C710.637 1065.89 718.756 1056.99 729.109 1055.23L757.506 1050.42L760.299 1049.95C760.299 1049.86 760.256 1049.78 760.256 1049.65C770.007 1046.6 776.28 1036.8 774.518 1026.45L773.53 1020.61C771.769 1010.3 762.704 1003.16 752.566 1003.42L752.523 1003.12L753.811 1002.91C776.065 999.126 793.335 979.837 792.476 957.283C791.487 929.96 766.614 910.457 740.537 914.882L822.419 900.962C848.496 896.537 865.508 869.945 857.431 843.783C850.73 822.217 828.09 809.715 805.793 813.496Z" fill="#F2E6FF"/>
<path d="M930.764 638.777C928.831 627.478 918.134 619.874 906.793 621.765L848.281 631.688C836.983 633.622 829.378 644.319 831.269 655.66C833.202 666.959 843.899 674.563 855.241 672.672L913.752 662.749C925.094 660.815 932.697 650.118 930.764 638.777Z" fill="#F2E6FF"/>
<path d="M1026.61 866.294C1041.13 863.802 1050.92 850.055 1048.47 835.491C1045.98 820.971 1032.24 811.176 1017.67 813.625L1041.09 809.629C1055.61 807.138 1065.4 793.39 1062.95 778.827C1060.46 764.306 1046.71 754.511 1032.15 756.96L956.11 769.891C941.59 772.383 931.795 786.13 934.243 800.694C936.735 815.214 950.482 825.009 965.046 822.56L941.632 826.556C927.112 829.047 917.317 842.794 919.766 857.358C922.258 871.878 936.005 881.673 950.568 879.225L1026.61 866.294Z" fill="#F2E6FF"/>
<path d="M1086.92 1047.37L959.418 1069.02C935.06 1073.15 918.649 1096.3 922.773 1120.66C926.897 1145.02 950.053 1161.43 974.411 1157.31L935.189 1163.96C910.83 1168.09 894.42 1191.24 898.544 1215.6C902.668 1239.96 925.824 1256.37 950.182 1252.25L1018.1 1240.69C1001.22 1243.57 989.877 1259.55 992.755 1276.43C995.634 1293.32 1011.61 1304.66 1028.5 1301.78L1116.78 1286.79C1133.66 1283.91 1145.01 1267.93 1142.13 1251.04C1139.25 1234.16 1123.27 1222.82 1106.38 1225.7L1077.73 1230.55C1102.09 1226.43 1118.5 1203.27 1114.38 1178.91C1110.25 1154.56 1087.1 1138.15 1062.74 1142.27L1101.96 1135.61C1126.32 1131.49 1142.73 1108.33 1138.6 1083.97C1134.44 1059.61 1111.33 1043.2 1086.92 1047.37Z" fill="#F2E6FF"/>
<path d="M1078.8 712.969L1160.69 699.05C1188.14 694.367 1206.61 668.334 1201.97 640.882C1197.29 613.431 1171.25 594.958 1143.8 599.597L1061.92 613.517C1034.47 618.199 1016 644.233 1020.64 671.684C1025.28 699.136 1051.35 717.609 1078.8 712.969Z" fill="#F2E6FF"/>
<path d="M1312.38 900.361C1312.29 900.318 1312.25 900.275 1312.25 900.189L1291.67 779.128L1290.17 779.386C1293.91 772.899 1295.45 765.123 1293.95 757.175C1290.64 739.39 1272.64 728.22 1254.77 731.227L1140.97 750.559C1123.14 753.609 1109.82 770.063 1112.57 787.978C1113.82 795.968 1121.98 807.954 1121.98 807.954L1122.11 808.727C1149.35 808.427 1173.53 827.887 1178.21 855.597C1182.94 883.306 1166.53 909.641 1140.71 918.361C1137.92 919.307 1135.04 920.123 1132.08 920.595L1090.23 927.684C1062.05 932.452 1040.96 957.928 1044.05 986.324C1047.4 1017.21 1075.93 1038.43 1106.08 1033.32L1295.45 1001.15C1323.68 996.334 1344.77 970.859 1341.68 942.419C1339.7 923.431 1328.06 908.137 1312.38 900.361Z" fill="#F2E6FF"/>
</g>
<path d="M1065.72 703.583C1193.82 831.676 1193.82 1039.36 1065.72 1167.45C937.628 1295.55 729.947 1295.55 601.853 1167.45C473.759 1039.36 473.759 831.676 601.853 703.583C729.947 575.489 937.628 575.489 1065.72 703.583Z" stroke="#4EBC87" stroke-width="10"/>
<path opacity="0.2" d="M988.647 414.33C948.201 401.461 905.846 395.668 863.457 397.194L847.917 397.749C803.793 399.345 759.878 391.089 719.327 373.641L691.992 361.882L864.289 528.975C863.804 529.01 863.284 529.01 862.763 529.08L616.823 291.013C593.755 269.333 563.715 256.498 531.697 254.695L504.432 253.168C493.922 252.579 485.389 261.632 486.637 272.108L490.106 301.42C493.714 331.841 507.693 359.766 529.72 380.475L776.389 609.973C776.354 610.146 776.32 610.285 776.285 610.458L604.474 450.129L617.586 476.839C637.046 516.453 647.453 559.917 648.077 604.041L648.285 619.581C648.875 662.005 656.784 704.013 671.63 743.766C673.226 748.032 678.707 749.177 681.863 745.916L716.517 710.257C718.182 714.697 720.749 718.859 724.357 722.363C737.538 735.163 758.802 734.851 771.602 721.704L778.956 714.142C791.756 700.96 791.444 679.696 778.297 666.896C774.69 663.393 770.458 660.965 765.948 659.404L777.915 647.089C781.592 659.993 788.53 672.169 798.867 682.159L812.639 667.937L827.173 682.02L873.655 634.046L877.436 637.723C879.518 639.735 882.882 639.701 884.894 637.619C886.906 635.538 886.872 632.173 884.79 630.161L881.009 626.484L927.492 578.51L912.957 564.427L926 550.968C916.045 541.324 904.181 534.838 891.659 531.438L909.038 512.776C910.807 517.181 913.443 521.309 917.12 524.709C930.579 537.231 951.808 536.468 964.331 523.044L971.511 515.308C984.034 501.849 983.271 480.62 969.846 468.097C966.169 464.663 961.868 462.339 957.358 460.882L991.249 424.494C994.371 421.095 992.949 415.683 988.647 414.33Z" fill="#B70ED2" fill-opacity="0.49"/>
<path d="M1530.72 700.058C1479.28 660.791 1405.5 665.058 1359.12 712.511C1351.77 720.039 1345.59 728.295 1340.42 736.967C1337.37 732.665 1333.97 728.572 1330.09 724.756C1295.08 690.519 1238.92 691.178 1204.72 726.179C1187.03 744.251 1178.74 767.978 1179.61 791.393L941.229 558.426L851.49 650.246L1085.71 879.154C1065.14 880.819 1045.09 889.561 1029.55 905.483C995.308 940.483 995.967 996.644 1030.97 1030.85C1034.19 1033.97 1037.63 1036.71 1041.13 1039.28C1037.32 1042.36 1033.6 1045.62 1030.1 1049.23C982.959 1097.48 980.981 1173.07 1023.58 1223.61C1023.82 1237.59 1029.34 1251.5 1040.13 1262.04C1058.82 1280.29 1087.16 1282.51 1108.25 1268.98C1111.69 1266.76 1114.95 1264.2 1117.93 1261.14L1244.65 1248.48C1397.73 1233.22 1521.53 1117.15 1546.68 965.389L1575.19 793.231C1577.31 791.081 1579.11 788.756 1580.81 786.398C1596.11 764.717 1593.89 734.573 1574.33 715.425C1562.25 703.7 1546.23 698.601 1530.72 700.058Z" fill="#FAF4DA" fill-opacity="0.62"/>
<path d="M797.896 686.322L790.785 693.641C778.436 706.372 757.9 706.649 745.17 694.3C732.439 681.951 732.162 661.416 744.511 648.685L751.622 641.366C763.971 628.635 784.506 628.358 797.237 640.707C809.968 653.091 810.245 673.591 797.896 686.322Z" fill="#6A5FAE"/>
<path d="M629.415 431.363L642.076 457.171C660.877 495.432 670.902 537.37 671.526 580.002L671.734 595.022C672.324 635.989 679.956 676.575 694.282 714.94C695.808 719.033 701.115 720.143 704.168 717.021L814.199 603.833L629.415 431.363Z" fill="#7F71D9"/>
<path d="M668.474 467.82L677.216 485.615C690.189 512.013 697.127 540.978 697.543 570.394L697.682 580.765C698.063 609.036 703.336 637.03 713.257 663.532C714.332 666.376 717.974 667.139 720.056 664.954L795.988 586.836" stroke="#A69DDE" stroke-width="5" stroke-miterlimit="10" stroke-linecap="round"/>
<path d="M976.922 501.779L983.86 494.322C995.966 481.348 995.203 460.813 982.23 448.741C969.256 436.635 948.721 437.398 936.649 450.371L929.712 457.829C917.605 470.803 918.369 491.338 931.342 503.41C944.315 515.516 964.851 514.788 976.922 501.779Z" fill="#6A5FAE"/>
<path d="M713.916 346.202L740.313 357.58C779.476 374.439 821.866 382.382 864.463 380.856L879.483 380.301C920.45 378.844 961.348 384.429 1000.37 396.847C1004.53 398.165 1005.92 403.403 1002.94 406.595L895.37 522.107L713.916 346.202Z" fill="#7F71D9"/>
<path d="M749.263 382.972L767.197 391.401C793.803 403.924 822.871 410.341 852.287 410.272L862.659 410.237C890.93 410.133 919.028 414.92 945.668 424.39C948.513 425.396 949.345 429.038 947.229 431.189L870.429 508.44" stroke="#A69DDE" stroke-width="5" stroke-miterlimit="10" stroke-linecap="round"/>
<path d="M848.749 635.364L557.228 364.136C535.964 344.121 522.436 317.168 518.967 287.787L515.602 259.481C514.388 249.387 522.609 240.646 532.773 241.201L559.101 242.692C590.009 244.427 619.043 256.81 641.313 277.762L929.261 556.518L848.749 635.364Z" fill="#F2E6FF"/>
<path d="M559.414 327.471L560.766 318.035C563.368 299.963 577.278 285.602 595.247 282.445L604.647 280.78C607.561 280.26 608.671 276.652 606.555 274.606L598.924 267.182C598.299 266.558 597.432 266.211 596.565 266.176L579.221 265.448C558.546 264.546 541.757 281.89 543.283 302.53L544.567 319.839C544.636 320.741 545.018 321.539 545.677 322.163L553.308 329.587C555.424 331.633 558.997 330.385 559.414 327.471Z" fill="#6A5FAE"/>
<path opacity="0.07" d="M642.596 280.225L636.838 314.913L859.398 537.509L885.102 511.839L642.596 280.225Z" fill="#A64DFF"/>
<path opacity="0.07" d="M567.773 373.467L602.046 365.662L837.337 574.729L813.228 601.89L567.773 373.467Z" fill="#A64DFF"/>
<path d="M825.855 540.353C799.11 567.965 799.804 612.019 827.416 638.764L844.482 655.31L941.332 555.338L924.266 538.792C896.654 512.047 852.599 512.741 825.855 540.353Z" fill="#44275D"/>
<path d="M831.891 530.467L815.448 547.429C786.102 577.712 786.865 626.102 817.148 655.449L939.91 528.732C909.593 499.386 861.237 500.149 831.891 530.467Z" fill="#7F71D9"/>
<path d="M900.193 612.401C898.25 614.413 894.989 614.448 892.977 612.505L780.83 503.826C778.818 501.884 778.783 498.623 780.726 496.611C782.668 494.599 785.929 494.565 787.941 496.507L900.088 605.186C902.1 607.163 902.17 610.389 900.193 612.401Z" fill="#008196"/>
</g>
</svg>
